# xmcd
#
# Track frame offsets: 
#        183
#        30445
#        65800
#        99473
#        139590
#        162310
#        195548
#        214933
#        240193
#        255355
#        270683
#
# Disc length: 3906 seconds
#
# Revision: 1
# Processed by: cddbd v1.5.2PL0 Copyright (c) Steve Scherf et al.
# Submitted via: ExactAudioCopyFreeDBPlugin 1.0
#
DISCID=920f400b
DTITLE=Zoot Sims - Zoot Sims In Paris
DYEAR=1956
DGENRE=Jazz
TTITLE0=Charlie Went To Cherbourg
TTITLE1=Crazy Rhythm
TTITLE2=I've Found A New Baby
TTITLE3=Charlie Was In Rouen
TTITLE4=Captain Jetter
TTITLE5=Nuzzolese Blues
TTITLE6=Everything I Love
TTITLE7=On The Alamo
TTITLE8=Evening In Paris
TTITLE9=My Old Flame
TTITLE10=Little Jon Special
EXTD=YEAR: 1956
EXTT0=
EXTT1=
EXTT2=
EXTT3=
EXTT4=
EXTT5=
EXTT6=
EXTT7=
EXTT8=
EXTT9=
EXTT10=
PLAYORDER=
